<svg width="16" height="16" viewBox="0 0 16 16" fill="none" xmlns="http://www.w3.org/2000/svg">
<path d="M8.87328 6.76132C8.92867 6.57684 8.96661 6.38756 8.98661 6.19599C8.99783 6.10361 9.04267 6.0186 9.11258 5.95718C9.18248 5.89576 9.27256 5.86223 9.36561 5.86299H10.2566C10.4859 5.86299 10.6623 6.06099 10.6423 6.28899C10.4389 8.58799 8.60761 10.4193 6.30894 10.6223C6.25515 10.6276 6.20085 10.6216 6.14951 10.6047C6.09817 10.5878 6.05093 10.5604 6.0108 10.5242C5.97067 10.488 5.93854 10.4438 5.91647 10.3944C5.89439 10.3451 5.88286 10.2917 5.88261 10.2377V9.44332C5.88261 9.15332 6.02461 8.98732 6.21594 8.96732C6.40739 8.94703 6.59654 8.90897 6.78094 8.85365C6.89035 8.82123 7.00649 8.81901 7.11705 8.84724C7.22761 8.87547 7.32847 8.93309 7.40894 9.01399L7.79028 9.39532C8.47792 9.02276 9.04239 8.45829 9.41494 7.77065L9.03328 7.38932C8.95238 7.30885 8.89476 7.20799 8.86653 7.09742C8.8383 6.98686 8.84052 6.87072 8.87294 6.76132M7.38361 5.77832C6.69609 6.15093 6.13175 6.71539 5.75928 7.40299" stroke="#F04C29" stroke-linecap="round" stroke-linejoin="round"/>
<path d="M12.7766 11.4534C14.8523 9.44074 14.8523 6.56008 12.7766 4.54741C12.3322 4.10952 11.891 3.66828 11.4533 3.22374C9.44092 1.14808 6.55992 1.14808 4.54725 3.22374C4.10925 3.66817 3.6679 4.1093 3.22325 4.54708C1.14759 6.55974 1.14759 9.44041 3.22325 11.4531C3.6678 11.891 4.10904 12.3322 4.54692 12.7767C6.55925 14.8524 9.44025 14.8524 11.4529 12.7767C11.8908 12.3322 12.332 11.8913 12.7766 11.4534Z" stroke="#F04C29" stroke-linecap="round" stroke-linejoin="round"/>
<path d="M11.5612 10.4809C12.0716 9.75404 12.3445 8.88706 12.3426 7.99892C12.3426 5.60225 10.4002 3.65625 7.99989 3.65625C5.59956 3.65625 3.65723 5.60192 3.65723 7.99892C3.65723 10.3989 5.59956 12.3452 7.99989 12.3452C8.92656 12.3452 9.78223 12.0576 10.4856 11.5639H10.4852L12.8946 13.9732C13.0376 14.1162 13.2315 14.1965 13.4337 14.1965C13.6359 14.1965 13.8299 14.1162 13.9729 13.9732C14.1158 13.8302 14.1962 13.6363 14.1962 13.4341C14.1962 13.2319 14.1158 13.0379 13.9729 12.8949L11.5602 10.4819L11.5612 10.4809Z" stroke="#F04C29" stroke-linecap="round" stroke-linejoin="round"/>
</svg>
