<svg width="16" height="16" viewBox="0 0 16 16" fill="none" xmlns="http://www.w3.org/2000/svg">
<path d="M8.47998 7.2001C8.15998 7.1201 7.83998 6.9601 7.59998 6.7201C7.35998 6.6401 7.27998 6.4001 7.27998 6.2401C7.27998 6.0801 7.35998 5.8401 7.51998 5.7601C7.75998 5.6001 7.99998 5.4401 8.23998 5.5201C8.71998 5.5201 9.11998 5.7601 9.35998 6.0801L10.08 5.1201C9.83998 4.8801 9.59998 4.7201 9.35998 4.5601C9.11998 4.4001 8.79998 4.3201 8.47998 4.3201V3.2001H7.51998V4.3201C7.11998 4.4001 6.71998 4.6401 6.39998 4.9601C6.07998 5.3601 5.83998 5.8401 5.91998 6.3201C5.91998 6.8001 6.07998 7.2801 6.39998 7.6001C6.79998 8.0001 7.35998 8.2401 7.83998 8.4801C8.07998 8.5601 8.39998 8.7201 8.63998 8.8801C8.79998 9.0401 8.87998 9.2801 8.87998 9.5201C8.87998 9.7601 8.79998 10.0001 8.63998 10.2401C8.39998 10.4801 8.07998 10.5601 7.83998 10.5601C7.51998 10.5601 7.11998 10.4801 6.87998 10.2401C6.63998 10.0801 6.39998 9.8401 6.23998 9.6001L5.43998 10.4801C5.67998 10.8001 5.91998 11.0401 6.23998 11.2801C6.63998 11.5201 7.11998 11.7601 7.59998 11.7601V12.8001H8.47998V11.6001C8.95998 11.5201 9.35998 11.2801 9.67998 10.9601C10.08 10.5601 10.32 9.9201 10.32 9.3601C10.32 8.8801 10.16 8.3201 9.75998 8.0001C9.35998 7.6001 8.95998 7.3601 8.47998 7.2001ZM7.99998 1.6001C4.47998 1.6001 1.59998 4.4801 1.59998 8.0001C1.59998 11.5201 4.47998 14.4001 7.99998 14.4001C11.52 14.4001 14.4 11.5201 14.4 8.0001C14.4 4.4801 11.52 1.6001 7.99998 1.6001ZM7.99998 13.5201C4.95998 13.5201 2.47998 11.0401 2.47998 8.0001C2.47998 4.9601 4.95998 2.4801 7.99998 2.4801C11.04 2.4801 13.52 4.9601 13.52 8.0001C13.52 11.0401 11.04 13.5201 7.99998 13.5201Z" fill="#F04C29"/>
</svg>
