<svg width="159" height="43" viewBox="0 0 159 43" fill="none" xmlns="http://www.w3.org/2000/svg">
<g filter="url(#filter0_dd_442_2859)">
<path d="M8.3489 33.3168C6.2044 32.6981 4.99999 31.8597 5 30.9856V24.2866C9.98828 23.9089 14.4017 23.0662 17.5511 21.8901C20.7004 20.714 22.4085 19.2707 22.4085 17.7856C22.4085 16.3006 20.7004 14.8573 17.5511 13.6812C14.4017 12.5051 9.98828 11.6624 5 11.2846V4.58564C4.99999 3.71157 6.2044 2.8732 8.3489 2.25452C10.4934 1.63584 13.4028 1.28739 16.4386 1.28564L142.561 1.28564C145.597 1.28739 148.507 1.63584 150.651 2.25452C152.796 2.8732 154 3.71157 154 4.58564V11.2978C149.051 11.6842 144.682 12.5289 141.566 13.7015C138.451 14.8741 136.763 16.3093 136.763 17.7856C136.763 19.262 138.451 20.6972 141.566 21.8698C144.682 23.0424 149.051 23.8871 154 24.2734V30.9856C154 31.8597 152.796 32.6981 150.651 33.3168C148.507 33.9354 145.597 34.2839 142.561 34.2856L16.4386 34.2856C13.4028 34.2839 10.4934 33.9354 8.3489 33.3168Z" stroke="#F04C29" stroke-linecap="round" stroke-linejoin="round" shape-rendering="crispEdges"/>
</g>
<path d="M48.8951 22.13C48.3404 22.13 47.8248 22.052 47.3481 21.896C46.8801 21.7313 46.4728 21.5017 46.1261 21.207C45.7794 20.9123 45.5151 20.57 45.3331 20.18C45.2638 20.0413 45.2594 19.9157 45.3201 19.803C45.3894 19.6817 45.5021 19.5993 45.6581 19.556C45.7794 19.5213 45.8964 19.5343 46.0091 19.595C46.1304 19.6557 46.2214 19.7467 46.2821 19.868C46.4121 20.1193 46.6028 20.3447 46.8541 20.544C47.1054 20.7433 47.4044 20.8993 47.7511 21.012C48.0978 21.116 48.4791 21.168 48.8951 21.168C49.3544 21.168 49.7618 21.0943 50.1171 20.947C50.4724 20.791 50.7498 20.57 50.9491 20.284C51.1571 19.9893 51.2611 19.634 51.2611 19.218C51.2611 18.6893 51.0661 18.2343 50.6761 17.853C50.2861 17.4717 49.6751 17.229 48.8431 17.125C47.8291 17.0037 47.0361 16.6917 46.4641 16.189C45.8921 15.6777 45.6061 15.0537 45.6061 14.317C45.6061 13.7883 45.7448 13.329 46.0221 12.939C46.3081 12.549 46.6981 12.25 47.1921 12.042C47.6861 11.8253 48.2538 11.717 48.8951 11.717C49.3718 11.717 49.8051 11.795 50.1951 11.951C50.5851 12.0983 50.9231 12.2977 51.2091 12.549C51.5038 12.7917 51.7421 13.0603 51.9241 13.355C52.0108 13.4937 52.0368 13.628 52.0021 13.758C51.9761 13.888 51.9024 13.9877 51.7811 14.057C51.6511 14.1177 51.5168 14.1263 51.3781 14.083C51.2481 14.0397 51.1484 13.9573 51.0791 13.836C50.9491 13.6367 50.7844 13.4503 50.5851 13.277C50.3944 13.095 50.1604 12.952 49.8831 12.848C49.6058 12.744 49.2721 12.6877 48.8821 12.679C48.1974 12.679 47.6471 12.8263 47.2311 13.121C46.8151 13.407 46.6071 13.8273 46.6071 14.382C46.6071 14.6767 46.6851 14.9497 46.8411 15.201C46.9971 15.4437 47.2528 15.656 47.6081 15.838C47.9721 16.0113 48.4574 16.1413 49.0641 16.228C50.1474 16.384 50.9491 16.7177 51.4691 17.229C51.9978 17.7317 52.2621 18.3903 52.2621 19.205C52.2621 19.673 52.1754 20.089 52.0021 20.453C51.8374 20.817 51.5991 21.1247 51.2871 21.376C50.9838 21.6187 50.6241 21.805 50.2081 21.935C49.8008 22.065 49.3631 22.13 48.8951 22.13ZM54.7595 19.101C54.6035 19.101 54.4779 19.0533 54.3825 18.958C54.2959 18.8627 54.2525 18.7413 54.2525 18.594V12.354C54.2525 12.198 54.2959 12.0767 54.3825 11.99C54.4779 11.8947 54.6035 11.847 54.7595 11.847C54.9069 11.847 55.0239 11.8947 55.1105 11.99C55.2059 12.0767 55.2535 12.198 55.2535 12.354V18.594C55.2535 18.7413 55.2059 18.8627 55.1105 18.958C55.0239 19.0533 54.9069 19.101 54.7595 19.101ZM60.3495 22C60.2022 22 60.0809 21.9523 59.9855 21.857C59.8902 21.7617 59.8425 21.6447 59.8425 21.506V18.126C59.8425 17.5887 59.7385 17.1467 59.5305 16.8C59.3312 16.4533 59.0539 16.1933 58.6985 16.02C58.3519 15.8467 57.9575 15.76 57.5155 15.76C57.0909 15.76 56.7052 15.8423 56.3585 16.007C56.0205 16.1717 55.7519 16.397 55.5525 16.683C55.3532 16.969 55.2535 17.294 55.2535 17.658H54.5385C54.5559 17.112 54.7032 16.6267 54.9805 16.202C55.2579 15.7687 55.6262 15.4307 56.0855 15.188C56.5449 14.9367 57.0562 14.811 57.6195 14.811C58.2349 14.811 58.7852 14.941 59.2705 15.201C59.7559 15.4523 60.1372 15.825 60.4145 16.319C60.7005 16.813 60.8435 17.4153 60.8435 18.126V21.506C60.8435 21.6447 60.7959 21.7617 60.7005 21.857C60.6052 21.9523 60.4882 22 60.3495 22ZM54.7595 22C54.6035 22 54.4779 21.9567 54.3825 21.87C54.2959 21.7747 54.2525 21.6533 54.2525 21.506V15.396C54.2525 15.24 54.2959 15.1187 54.3825 15.032C54.4779 14.9367 54.6035 14.889 54.7595 14.889C54.9069 14.889 55.0239 14.9367 55.1105 15.032C55.2059 15.1187 55.2535 15.24 55.2535 15.396V21.506C55.2535 21.6533 55.2059 21.7747 55.1105 21.87C55.0239 21.9567 54.9069 22 54.7595 22ZM66.1834 22.065C65.516 22.065 64.918 21.909 64.3894 21.597C63.8607 21.2763 63.4404 20.843 63.1284 20.297C62.825 19.751 62.6734 19.1357 62.6734 18.451C62.6734 17.7577 62.8294 17.138 63.1414 16.592C63.462 16.046 63.8954 15.617 64.4414 15.305C64.9874 14.9843 65.6027 14.824 66.2874 14.824C66.972 14.824 67.583 14.9843 68.1204 15.305C68.6664 15.617 69.0954 16.046 69.4074 16.592C69.728 17.138 69.8927 17.7577 69.9014 18.451L69.4984 18.763C69.4984 19.387 69.351 19.9503 69.0564 20.453C68.7704 20.947 68.376 21.3413 67.8734 21.636C67.3794 21.922 66.816 22.065 66.1834 22.065ZM66.2874 21.155C66.79 21.155 67.2364 21.038 67.6264 20.804C68.025 20.57 68.337 20.2493 68.5624 19.842C68.7964 19.426 68.9134 18.9623 68.9134 18.451C68.9134 17.931 68.7964 17.4673 68.5624 17.06C68.337 16.6527 68.025 16.332 67.6264 16.098C67.2364 15.8553 66.79 15.734 66.2874 15.734C65.7934 15.734 65.347 15.8553 64.9484 16.098C64.5497 16.332 64.2334 16.6527 63.9994 17.06C63.7654 17.4673 63.6484 17.931 63.6484 18.451C63.6484 18.9623 63.7654 19.426 63.9994 19.842C64.2334 20.2493 64.5497 20.57 64.9484 20.804C65.347 21.038 65.7934 21.155 66.2874 21.155ZM69.3944 22C69.247 22 69.1257 21.9567 69.0304 21.87C68.935 21.7747 68.8874 21.6533 68.8874 21.506V19.283L69.1344 18.256L69.9014 18.451V21.506C69.9014 21.6533 69.8537 21.7747 69.7584 21.87C69.663 21.9567 69.5417 22 69.3944 22ZM74.9812 22.065C74.2966 22.065 73.6899 21.9133 73.1612 21.61C72.6326 21.298 72.2166 20.869 71.9132 20.323C71.6186 19.777 71.4712 19.153 71.4712 18.451C71.4712 17.7403 71.6272 17.112 71.9392 16.566C72.2512 16.02 72.6802 15.5953 73.2262 15.292C73.7722 14.98 74.3919 14.824 75.0852 14.824C75.7872 14.824 76.4069 14.98 76.9442 15.292C77.4902 15.5953 77.9149 16.02 78.2182 16.566C78.5302 17.112 78.6906 17.7403 78.6992 18.451L78.1142 18.763C78.1142 19.4043 77.9799 19.9763 77.7112 20.479C77.4426 20.973 77.0699 21.363 76.5932 21.649C76.1252 21.9263 75.5879 22.065 74.9812 22.065ZM75.1112 24.808C74.4266 24.808 73.8242 24.678 73.3042 24.418C72.7842 24.1667 72.3552 23.82 72.0172 23.378C71.9219 23.274 71.8786 23.1613 71.8872 23.04C71.9046 22.9187 71.9696 22.819 72.0822 22.741C72.1949 22.663 72.3206 22.637 72.4592 22.663C72.5979 22.689 72.7062 22.754 72.7842 22.858C73.0356 23.17 73.3562 23.4213 73.7462 23.612C74.1449 23.8027 74.6042 23.898 75.1242 23.898C75.6096 23.898 76.0472 23.781 76.4372 23.547C76.8272 23.313 77.1349 22.9837 77.3602 22.559C77.5942 22.1343 77.7112 21.636 77.7112 21.064V19.088L78.0882 18.334L78.6992 18.451V21.103C78.6992 21.805 78.5432 22.4333 78.2312 22.988C77.9192 23.5513 77.4946 23.9933 76.9572 24.314C76.4199 24.6433 75.8046 24.808 75.1112 24.808ZM75.0852 21.155C75.5966 21.155 76.0472 21.0423 76.4372 20.817C76.8359 20.583 77.1479 20.2623 77.3732 19.855C77.5986 19.4477 77.7112 18.9797 77.7112 18.451C77.7112 17.9223 77.5986 17.4543 77.3732 17.047C77.1479 16.631 76.8359 16.3103 76.4372 16.085C76.0472 15.851 75.5966 15.734 75.0852 15.734C74.5739 15.734 74.1189 15.851 73.7202 16.085C73.3216 16.3103 73.0096 16.631 72.7842 17.047C72.5589 17.4543 72.4462 17.9223 72.4462 18.451C72.4462 18.9797 72.5589 19.4477 72.7842 19.855C73.0096 20.2623 73.3216 20.583 73.7202 20.817C74.1189 21.0423 74.5739 21.155 75.0852 21.155ZM83.7791 22.065C83.1117 22.065 82.5137 21.909 81.9851 21.597C81.4564 21.2763 81.0361 20.843 80.7241 20.297C80.4207 19.751 80.2691 19.1357 80.2691 18.451C80.2691 17.7577 80.4251 17.138 80.7371 16.592C81.0577 16.046 81.4911 15.617 82.0371 15.305C82.5831 14.9843 83.1984 14.824 83.8831 14.824C84.5677 14.824 85.1787 14.9843 85.7161 15.305C86.2621 15.617 86.6911 16.046 87.0031 16.592C87.3237 17.138 87.4884 17.7577 87.4971 18.451L87.0941 18.763C87.0941 19.387 86.9467 19.9503 86.6521 20.453C86.3661 20.947 85.9717 21.3413 85.4691 21.636C84.9751 21.922 84.4117 22.065 83.7791 22.065ZM83.8831 21.155C84.3857 21.155 84.8321 21.038 85.2221 20.804C85.6207 20.57 85.9327 20.2493 86.1581 19.842C86.3921 19.426 86.5091 18.9623 86.5091 18.451C86.5091 17.931 86.3921 17.4673 86.1581 17.06C85.9327 16.6527 85.6207 16.332 85.2221 16.098C84.8321 15.8553 84.3857 15.734 83.8831 15.734C83.3891 15.734 82.9427 15.8553 82.5441 16.098C82.1454 16.332 81.8291 16.6527 81.5951 17.06C81.3611 17.4673 81.2441 17.931 81.2441 18.451C81.2441 18.9623 81.3611 19.426 81.5951 19.842C81.8291 20.2493 82.1454 20.57 82.5441 20.804C82.9427 21.038 83.3891 21.155 83.8831 21.155ZM86.9901 22C86.8427 22 86.7214 21.9567 86.6261 21.87C86.5307 21.7747 86.4831 21.6533 86.4831 21.506V19.283L86.7301 18.256L87.4971 18.451V21.506C87.4971 21.6533 87.4494 21.7747 87.3541 21.87C87.2587 21.9567 87.1374 22 86.9901 22ZM90.3279 22C90.1979 22 90.0853 21.9567 89.9899 21.87C89.8946 21.7747 89.8469 21.649 89.8469 21.493V14.902C89.8469 14.2953 89.9509 13.7623 90.1589 13.303C90.3669 12.8437 90.6746 12.4883 91.0819 12.237C91.4893 11.977 91.9876 11.847 92.5769 11.847C92.7243 11.847 92.8456 11.8903 92.9409 11.977C93.0363 12.0637 93.0839 12.172 93.0839 12.302C93.0839 12.432 93.0363 12.5403 92.9409 12.627C92.8456 12.7137 92.7243 12.757 92.5769 12.757C92.1869 12.757 91.8619 12.848 91.6019 13.03C91.3506 13.2033 91.1599 13.4503 91.0299 13.771C90.9086 14.083 90.8479 14.4427 90.8479 14.85V21.493C90.8479 21.649 90.8003 21.7747 90.7049 21.87C90.6183 21.9567 90.4926 22 90.3279 22ZM89.0149 16.02C88.8763 16.02 88.7636 15.981 88.6769 15.903C88.5989 15.8163 88.5599 15.7123 88.5599 15.591C88.5599 15.461 88.5989 15.357 88.6769 15.279C88.7636 15.1923 88.8763 15.149 89.0149 15.149H92.4079C92.5466 15.149 92.6549 15.1923 92.7329 15.279C92.8196 15.357 92.8629 15.461 92.8629 15.591C92.8629 15.7123 92.8196 15.8163 92.7329 15.903C92.6549 15.981 92.5466 16.02 92.4079 16.02H89.0149ZM96.1417 22C96.003 22 95.8817 21.9523 95.7777 21.857C95.6823 21.7617 95.6347 21.6403 95.6347 21.493V13.043L94.3347 13.498C94.2393 13.5413 94.1527 13.563 94.0747 13.563C93.9273 13.563 93.806 13.5153 93.7107 13.42C93.6153 13.3247 93.5677 13.2077 93.5677 13.069C93.5677 12.965 93.5893 12.8697 93.6327 12.783C93.6847 12.6963 93.7713 12.6313 93.8927 12.588L95.8947 11.899C95.938 11.8817 95.9813 11.8687 96.0247 11.86C96.0767 11.8427 96.12 11.834 96.1547 11.834C96.302 11.834 96.419 11.886 96.5057 11.99C96.601 12.0853 96.6487 12.2023 96.6487 12.341V21.493C96.6487 21.6403 96.601 21.7617 96.5057 21.857C96.4103 21.9523 96.289 22 96.1417 22ZM102.082 22C101.458 22 100.899 21.857 100.405 21.571C99.9108 21.2763 99.5164 20.882 99.2218 20.388C98.9358 19.8853 98.7928 19.322 98.7928 18.698C98.7928 18.5507 98.8404 18.4293 98.9358 18.334C99.0311 18.2387 99.1481 18.191 99.2868 18.191C99.4341 18.191 99.5554 18.2387 99.6508 18.334C99.7548 18.4293 99.8068 18.5507 99.8068 18.698C99.8068 19.1313 99.9064 19.5213 100.106 19.868C100.305 20.2147 100.574 20.4877 100.912 20.687C101.258 20.8863 101.648 20.986 102.082 20.986C102.515 20.986 102.905 20.8863 103.252 20.687C103.598 20.4877 103.871 20.2147 104.071 19.868C104.27 19.5213 104.37 19.1313 104.37 18.698C104.37 18.2647 104.27 17.8747 104.071 17.528C103.871 17.1813 103.598 16.9083 103.252 16.709C102.905 16.5097 102.515 16.41 102.082 16.41H99.8068C99.6594 16.41 99.5381 16.3623 99.4428 16.267C99.3474 16.163 99.2998 16.0417 99.2998 15.903V12.341C99.2998 12.2023 99.3474 12.0853 99.4428 11.99C99.5381 11.886 99.6594 11.834 99.8068 11.834H104.37C104.508 11.834 104.625 11.886 104.721 11.99C104.825 12.0853 104.877 12.2023 104.877 12.341C104.877 12.4797 104.829 12.601 104.734 12.705C104.638 12.8003 104.517 12.848 104.37 12.848H100.301V15.396H102.082C102.714 15.396 103.278 15.5433 103.772 15.838C104.266 16.124 104.656 16.5183 104.942 17.021C105.236 17.515 105.384 18.074 105.384 18.698C105.384 19.322 105.236 19.8853 104.942 20.388C104.656 20.882 104.266 21.2763 103.772 21.571C103.278 21.857 102.714 22 102.082 22ZM109.803 22C109.162 22 108.611 21.7963 108.152 21.389C107.693 20.9817 107.342 20.401 107.099 19.647C106.865 18.8843 106.748 17.97 106.748 16.904C106.748 15.8553 106.865 14.9497 107.099 14.187C107.342 13.4243 107.693 12.8393 108.152 12.432C108.611 12.0247 109.162 11.821 109.803 11.821C110.462 11.821 111.016 12.029 111.467 12.445C111.926 12.8523 112.273 13.4373 112.507 14.2C112.75 14.9627 112.871 15.864 112.871 16.904C112.871 17.9613 112.75 18.8713 112.507 19.634C112.273 20.388 111.926 20.973 111.467 21.389C111.016 21.7963 110.462 22 109.803 22ZM109.803 20.986C110.271 20.986 110.657 20.8127 110.96 20.466C111.263 20.1107 111.489 19.6253 111.636 19.01C111.783 18.3947 111.857 17.6927 111.857 16.904C111.857 16.124 111.779 15.4307 111.623 14.824C111.476 14.2087 111.25 13.7233 110.947 13.368C110.644 13.0127 110.262 12.835 109.803 12.835C109.344 12.835 108.962 13.0127 108.659 13.368C108.364 13.7147 108.139 14.1957 107.983 14.811C107.836 15.4263 107.762 16.124 107.762 16.904C107.762 17.7013 107.836 18.4077 107.983 19.023C108.139 19.6297 108.364 20.1107 108.659 20.466C108.962 20.8127 109.344 20.986 109.803 20.986Z" fill="#20473E"/>
<defs>
<filter id="filter0_dd_442_2859" x="0.5" y="0.785645" width="158" height="42" filterUnits="userSpaceOnUse" color-interpolation-filters="sRGB">
<feFlood flood-opacity="0" result="BackgroundImageFix"/>
<feColorMatrix in="SourceAlpha" type="matrix" values="0 0 0 0 0 0 0 0 0 0 0 0 0 0 0 0 0 0 127 0" result="hardAlpha"/>
<feOffset dy="4"/>
<feGaussianBlur stdDeviation="2"/>
<feComposite in2="hardAlpha" operator="out"/>
<feColorMatrix type="matrix" values="0 0 0 0 0 0 0 0 0 0 0 0 0 0 0 0 0 0 0.25 0"/>
<feBlend mode="normal" in2="BackgroundImageFix" result="effect1_dropShadow_442_2859"/>
<feColorMatrix in="SourceAlpha" type="matrix" values="0 0 0 0 0 0 0 0 0 0 0 0 0 0 0 0 0 0 127 0" result="hardAlpha"/>
<feOffset dy="4"/>
<feGaussianBlur stdDeviation="2"/>
<feComposite in2="hardAlpha" operator="out"/>
<feColorMatrix type="matrix" values="0 0 0 0 0 0 0 0 0 0 0 0 0 0 0 0 0 0 0.25 0"/>
<feBlend mode="normal" in2="effect1_dropShadow_442_2859" result="effect2_dropShadow_442_2859"/>
<feBlend mode="normal" in="SourceGraphic" in2="effect2_dropShadow_442_2859" result="shape"/>
</filter>
</defs>
</svg>
