<svg width="24" height="25" viewBox="0 0 24 25" fill="none" xmlns="http://www.w3.org/2000/svg">
<path d="M7.5 5.75V2.75C7.5 2.55109 7.57902 2.36032 7.71967 2.21967C7.86032 2.07902 8.05109 2 8.25 2C8.44891 2 8.63968 2.07902 8.78033 2.21967C8.92098 2.36032 9 2.55109 9 2.75V5.75C9 5.94891 8.92098 6.13968 8.78033 6.28033C8.63968 6.42098 8.44891 6.5 8.25 6.5C8.05109 6.5 7.86032 6.42098 7.71967 6.28033C7.57902 6.13968 7.5 5.94891 7.5 5.75ZM11.25 6.5C11.4489 6.5 11.6397 6.42098 11.7803 6.28033C11.921 6.13968 12 5.94891 12 5.75V2.75C12 2.55109 11.921 2.36032 11.7803 2.21967C11.6397 2.07902 11.4489 2 11.25 2C11.0511 2 10.8603 2.07902 10.7197 2.21967C10.579 2.36032 10.5 2.55109 10.5 2.75V5.75C10.5 5.94891 10.579 6.13968 10.7197 6.28033C10.8603 6.42098 11.0511 6.5 11.25 6.5ZM14.25 6.5C14.4489 6.5 14.6397 6.42098 14.7803 6.28033C14.921 6.13968 15 5.94891 15 5.75V2.75C15 2.55109 14.921 2.36032 14.7803 2.21967C14.6397 2.07902 14.4489 2 14.25 2C14.0511 2 13.8603 2.07902 13.7197 2.21967C13.579 2.36032 13.5 2.55109 13.5 2.75V5.75C13.5 5.94891 13.579 6.13968 13.7197 6.28033C13.8603 6.42098 14.0511 6.5 14.25 6.5ZM23.25 11.75V12.5C23.2497 13.454 22.8859 14.3719 22.2325 15.0671C21.5792 15.7622 20.6855 16.1822 19.7334 16.2416C19.2218 17.6887 18.3508 18.982 17.2022 20H19.5C19.6989 20 19.8897 20.079 20.0303 20.2197C20.171 20.3603 20.25 20.5511 20.25 20.75C20.25 20.9489 20.171 21.1397 20.0303 21.2803C19.8897 21.421 19.6989 21.5 19.5 21.5H3C2.80109 21.5 2.61032 21.421 2.46967 21.2803C2.32902 21.1397 2.25 20.9489 2.25 20.75C2.25 20.5511 2.32902 20.3603 2.46967 20.2197C2.61032 20.079 2.80109 20 3 20H5.30063C4.34372 19.1546 3.57703 18.1158 3.05117 16.9523C2.52531 15.7887 2.25224 14.5269 2.25 13.25V8.75C2.25 8.55109 2.32902 8.36032 2.46967 8.21967C2.61032 8.07902 2.80109 8 3 8H19.5C20.4946 8 21.4484 8.39509 22.1516 9.09835C22.8549 9.80161 23.25 10.7554 23.25 11.75ZM18.75 9.5H3.75V13.25C3.75289 14.6582 4.15085 16.0373 4.89863 17.2306C5.6464 18.4239 6.71399 19.3834 7.98 20H14.52C15.786 19.3834 16.8536 18.4239 17.6014 17.2306C18.3492 16.0373 18.7471 14.6582 18.75 13.25V9.5ZM21.75 11.75C21.7499 11.2848 21.6055 10.8311 21.3369 10.4514C21.0683 10.0716 20.6886 9.78443 20.25 9.62937V13.25C20.2494 13.721 20.2118 14.1912 20.1375 14.6562C20.6028 14.5188 21.0113 14.2345 21.3019 13.8459C21.5925 13.4574 21.7497 12.9852 21.75 12.5V11.75Z" fill="#20473E"/>
</svg>
