<svg width="24" height="25" viewBox="0 0 24 25" fill="none" xmlns="http://www.w3.org/2000/svg">
<path d="M6 18.483C4.447 18.436 3.52 18.263 2.879 17.621C2 16.743 2 15.328 2 12.5C2 9.672 2 8.257 2.879 7.379C3.757 6.5 5.172 6.5 8 6.5H16C18.828 6.5 20.243 6.5 21.121 7.379C22 8.257 22 9.672 22 12.5C22 15.328 22 16.743 21.121 17.621C20.48 18.263 19.554 18.436 18 18.483" stroke="#20473E" stroke-width="1.5"/>
<path opacity="0.5" d="M9 10.5H6" stroke="#20473E" stroke-width="1.5" stroke-linecap="round"/>
<path d="M19 14.5H5M18 14.5V16.5C18 19.328 18 20.743 17.121 21.621C16.243 22.5 14.828 22.5 12 22.5C9.172 22.5 7.757 22.5 6.879 21.621C6 20.743 6 19.328 6 16.5V14.5" stroke="#20473E" stroke-width="1.5" stroke-linecap="round"/>
<path opacity="0.5" d="M17.983 6.5C17.936 4.947 17.763 4.02 17.121 3.379C16.243 2.5 14.828 2.5 12 2.5C9.17197 2.5 7.75697 2.5 6.87897 3.379C6.23697 4.02 6.06397 4.947 6.01697 6.5" stroke="#20473E" stroke-width="1.5"/>
<path opacity="0.5" d="M17 11.5C17.5523 11.5 18 11.0523 18 10.5C18 9.94772 17.5523 9.5 17 9.5C16.4477 9.5 16 9.94772 16 10.5C16 11.0523 16.4477 11.5 17 11.5Z" fill="#20473E"/>
<path opacity="0.5" d="M15 17H9M13 19.5H9" stroke="#20473E" stroke-width="1.5" stroke-linecap="round"/>
</svg>
