<svg width="24" height="25" viewBox="0 0 24 25" fill="none" xmlns="http://www.w3.org/2000/svg">
<path d="M0.857178 14.2142C2.67581 14.2142 4.41995 14.9366 5.70591 16.2226C6.99187 17.5086 7.71432 19.2527 7.71432 21.0713M0.857178 18.4999C1.53916 18.4999 2.19322 18.7708 2.67545 19.253C3.15769 19.7353 3.42861 20.3893 3.42861 21.0713M12 21.0713H21.4286C21.8833 21.0713 22.3193 20.8907 22.6408 20.5692C22.9623 20.2477 23.1429 19.8117 23.1429 19.357V5.64275C23.1429 5.1881 22.9623 4.75206 22.6408 4.43057C22.3193 4.10908 21.8833 3.92847 21.4286 3.92847H2.57146C2.11681 3.92847 1.68077 4.10908 1.35928 4.43057C1.03779 4.75206 0.857178 5.1881 0.857178 5.64275V9.92847" stroke="#20473E" stroke-width="1.71429" stroke-linecap="round" stroke-linejoin="round"/>
</svg>
