<svg width="22" height="23" viewBox="0 0 22 23" fill="none" xmlns="http://www.w3.org/2000/svg">
<g filter="url(#filter0_dd_233_4203)">
<path d="M5 9.33333C5.55333 9.76133 6.38467 10.0113 7.33333 10C8.282 10.0113 9.11333 9.76133 9.66667 9.33333C10.22 8.90533 11.0513 8.65533 12 8.66667C12.9487 8.65533 13.78 8.90533 14.3333 9.33333M8.33333 2C8.12234 2.15145 7.95138 2.35198 7.83523 2.58428C7.71908 2.81658 7.66123 3.07367 7.66667 3.33333C7.66123 3.593 7.71908 3.85008 7.83523 4.08238C7.95138 4.31469 8.12234 4.51522 8.33333 4.66667M11 2C10.789 2.15145 10.6181 2.35198 10.5019 2.58428C10.3857 2.81658 10.3279 3.07367 10.3333 3.33333C10.3279 3.593 10.3857 3.85008 10.5019 4.08238C10.6181 4.31469 10.789 4.51522 11 4.66667" stroke="#F04C29" stroke-width="1.33333" stroke-linecap="round" stroke-linejoin="round"/>
<path d="M5 6.66675H14.3333V10.0001C14.3333 11.0609 13.9119 12.0784 13.1618 12.8285C12.4116 13.5787 11.3942 14.0001 10.3333 14.0001H9C7.93913 14.0001 6.92172 13.5787 6.17157 12.8285C5.42143 12.0784 5 11.0609 5 10.0001V6.66675Z" stroke="#F04C29" stroke-width="1.33333" stroke-linecap="round" stroke-linejoin="round"/>
<path d="M14.1639 11.1506C14.4617 11.2873 14.7884 11.3488 15.1155 11.3296C15.4425 11.3104 15.7598 11.2112 16.0395 11.0406C16.3193 10.8701 16.5528 10.6334 16.7196 10.3515C16.8864 10.0695 16.9814 9.75091 16.9963 9.42364C17.0111 9.09638 16.9454 8.77047 16.8048 8.47458C16.6641 8.17868 16.453 7.92186 16.1899 7.72669C15.9268 7.53151 15.6197 7.40396 15.2958 7.35524C14.9718 7.30653 14.6408 7.33814 14.3319 7.4473" stroke="#F04C29" stroke-width="1.33333" stroke-linecap="round" stroke-linejoin="round"/>
</g>
<defs>
<filter id="filter0_dd_233_4203" x="-1" y="0" width="24" height="24" filterUnits="userSpaceOnUse" color-interpolation-filters="sRGB">
<feFlood flood-opacity="0" result="BackgroundImageFix"/>
<feColorMatrix in="SourceAlpha" type="matrix" values="0 0 0 0 0 0 0 0 0 0 0 0 0 0 0 0 0 0 127 0" result="hardAlpha"/>
<feOffset dy="4"/>
<feGaussianBlur stdDeviation="2"/>
<feComposite in2="hardAlpha" operator="out"/>
<feColorMatrix type="matrix" values="0 0 0 0 0 0 0 0 0 0 0 0 0 0 0 0 0 0 0.25 0"/>
<feBlend mode="normal" in2="BackgroundImageFix" result="effect1_dropShadow_233_4203"/>
<feColorMatrix in="SourceAlpha" type="matrix" values="0 0 0 0 0 0 0 0 0 0 0 0 0 0 0 0 0 0 127 0" result="hardAlpha"/>
<feOffset dy="4"/>
<feGaussianBlur stdDeviation="2"/>
<feComposite in2="hardAlpha" operator="out"/>
<feColorMatrix type="matrix" values="0 0 0 0 0 0 0 0 0 0 0 0 0 0 0 0 0 0 0.25 0"/>
<feBlend mode="normal" in2="effect1_dropShadow_233_4203" result="effect2_dropShadow_233_4203"/>
<feBlend mode="normal" in="SourceGraphic" in2="effect2_dropShadow_233_4203" result="shape"/>
</filter>
</defs>
</svg>
