<svg width="24" height="15" viewBox="0 0 24 15" fill="none" xmlns="http://www.w3.org/2000/svg">
<path d="M7 13.5V12.5C7 11.1739 7.52678 9.90215 8.46447 8.96447C9.40215 8.02678 10.6739 7.5 12 7.5M12 7.5C13.3261 7.5 14.5979 8.02678 15.5355 8.96447C16.4732 9.90215 17 11.1739 17 12.5V13.5M12 7.5C12.7956 7.5 13.5587 7.18393 14.1213 6.62132C14.6839 6.05871 15 5.29565 15 4.5C15 3.70435 14.6839 2.94129 14.1213 2.37868C13.5587 1.81607 12.7956 1.5 12 1.5C11.2044 1.5 10.4413 1.81607 9.87868 2.37868C9.31607 2.94129 9 3.70435 9 4.5C9 5.29565 9.31607 6.05871 9.87868 6.62132C10.4413 7.18393 11.2044 7.5 12 7.5ZM1 13.5V12.5C1 11.7044 1.31607 10.9413 1.87868 10.3787C2.44129 9.81607 3.20435 9.5 4 9.5M4 9.5C4.53043 9.5 5.03914 9.28929 5.41421 8.91421C5.78929 8.53914 6 8.03043 6 7.5C6 6.96957 5.78929 6.46086 5.41421 6.08579C5.03914 5.71071 4.53043 5.5 4 5.5C3.46957 5.5 2.96086 5.71071 2.58579 6.08579C2.21071 6.46086 2 6.96957 2 7.5C2 8.03043 2.21071 8.53914 2.58579 8.91421C2.96086 9.28929 3.46957 9.5 4 9.5ZM23 13.5V12.5C23 11.7044 22.6839 10.9413 22.1213 10.3787C21.5587 9.81607 20.7956 9.5 20 9.5M20 9.5C20.5304 9.5 21.0391 9.28929 21.4142 8.91421C21.7893 8.53914 22 8.03043 22 7.5C22 6.96957 21.7893 6.46086 21.4142 6.08579C21.0391 5.71071 20.5304 5.5 20 5.5C19.4696 5.5 18.9609 5.71071 18.5858 6.08579C18.2107 6.46086 18 6.96957 18 7.5C18 8.03043 18.2107 8.53914 18.5858 8.91421C18.9609 9.28929 19.4696 9.5 20 9.5Z" stroke="#20473E" stroke-width="1.5" stroke-linecap="round" stroke-linejoin="round"/>
</svg>
